<?xml version="1.0" standalone="no"?><!DOCTYPE svg PUBLIC "-//W3C//DTD SVG 1.1//EN" "http://www.w3.org/Graphics/SVG/1.1/DTD/svg11.dtd"><svg t="1651301775997" class="icon" viewBox="0 0 1024 1024" version="1.1" xmlns="http://www.w3.org/2000/svg" p-id="4335" width="200" height="200" xmlns:xlink="http://www.w3.org/1999/xlink"><defs><style type="text/css"></style></defs><path d="M304.44 496.21c-8.95 0-16.21-7.26-16.21-16.21 0-33.33 6.84-65.55 20.33-95.75 3.64-8.18 13.24-11.84 21.41-8.19 8.18 3.65 11.84 13.24 8.19 21.41-11.62 26.02-17.51 53.79-17.51 82.54-0.01 8.95-7.26 16.2-16.21 16.2z" fill="#FFFFFF" p-id="4336"></path><path d="M896.53 786.82L746.08 855.2a26.416 26.416 0 0 1-19.82 0.83l-204.63-73.08a26.47 26.47 0 0 0-17.78 0l-204.63 73.08a26.412 26.412 0 0 1-19.82-0.83l-150.45-68.39a26.44 26.44 0 0 1-15.49-24.06V213.89c0-19.22 19.87-32.01 37.36-24.06l128.58 58.45a26.416 26.416 0 0 0 19.82 0.83l204.64-73.08a26.47 26.47 0 0 1 17.78 0l204.63 73.08a26.412 26.412 0 0 0 19.82-0.83l128.58-58.45c17.5-7.95 37.36 4.84 37.36 24.06v548.87a26.45 26.45 0 0 1-15.5 24.06z" fill="#77CAF7" p-id="4337"></path><path d="M873.76 190.3l-129.03 58.45c-3.1 1.41-2.21 2.18-10.19 2.33V858c7.99-0.15 7.55-0.93 10.65-2.33l150-68.39c9.43-4.29 15.04-13.7 15.04-24.06V214.35c-0.01-19.22-18.97-32.01-36.47-24.05zM502.94 176.49l-205.09 73.08c-3.26 1.16-2.55 1.66-10.53 1.5V858c7.99 0.15 7.72-0.34 10.98-1.5l204.18-73.08c2.87-1.03 8.44-1.54 8.44-1.54V174.95c0.01 0-5.11 0.51-7.98 1.54z" fill="#5EA8FF" opacity=".54" p-id="4338"></path><path d="M573.05 413.11c73.48-49.56 94.02-122.19 95.71-184.07l-147.14-52.55a26.47 26.47 0 0 0-17.78 0L299.2 249.57a26.412 26.412 0 0 1-19.82-0.83L149.9 190.3c-17.5-7.95-38.27 4.84-38.27 24.06v385.6c63.89-25.5 105.76-80.59 163.53-116.14 91.93-56.57 174.22 12.69 297.89-70.71z" fill="#ABCF79" p-id="4339"></path><path d="M293.14 250.83c-1.63 0.23-5.82 0.32-5.82 0.25v225.57c71.87-35.29 135.76-2.18 223.6-32.71V174.95s-5.11 0.51-7.99 1.54l-204.18 73.08c-1.63 0.58-3.53 0.99-5.21 1.25-0.06 0-0.34 0-0.4 0.01z" fill="#ABCF79" opacity=".5" p-id="4340"></path><path d="M679.53 756.28c0 31.12 5.54 61.02 14.79 88.97l31.71 11.24a26.722 26.722 0 0 0 19.94-0.83l149.61-68.39c9.43-4.29 14.65-13.7 14.65-24.06V480.35c-127.78 21.35-230.7 136.73-230.7 275.93z" fill="#ABCF79" p-id="4341"></path><path d="M734.53 587.61V858c0-0.08 4.23-0.31 5.86-0.7 1.63-0.39 3.68-0.93 5.23-1.64l149.78-68.39c9.43-4.29 14.82-13.7 14.82-24.06V480.35c-71.87 11.63-135.76 51.19-175.69 107.26z" fill="#ABCF79" opacity=".5" p-id="4342"></path><path d="M175.52 202.35L149 190.3c-17.5-7.95-37.36 4.84-37.36 24.06v548.87a26.44 26.44 0 0 0 15.49 24.06l48.39 22V202.35z" fill="#FFFFFF" p-id="4343"></path><path d="M573.06 429.08c-5.13 0-10.17-2.46-13.26-7.04-4.93-7.32-3-17.24 4.31-22.17 53.86-36.33 83.48-90.04 88.14-159.76l-136.01-48.57c-2.26-0.81-4.77-0.81-7.04 0l-204.63 73.08c-10.44 3.72-21.73 3.24-31.8-1.33l-128.59-58.45c-4.68-2.12-8.55-0.19-9.99 0.73-1.44 0.93-4.8 3.64-4.8 8.79 0 8.82-7.15 15.97-15.97 15.97s-15.97-7.15-15.97-15.97c0-14.48 7.27-27.81 19.45-35.65 12.17-7.84 27.32-8.96 40.5-2.95l128.58 58.44c2.49 1.13 5.27 1.25 7.85 0.32l204.63-73.08a42.56 42.56 0 0 1 28.52 0l147.14 52.55c6.5 2.32 10.78 8.57 10.59 15.48-2.31 85.02-37.84 153.1-102.74 196.88a15.815 15.815 0 0 1-8.91 2.73zM337.02 477.56c-7.73 0-14.53-5.62-15.76-13.5-1.36-8.71 4.59-15.17 13.31-16.54 21.64-3.39 43.44-1.55 64.5-1.55h1.9c18.65 0 39.77-1.59 61.68-4.57 8.79-1.21 16.79 4.07 17.98 12.82 1.19 8.73-4.93 18.07-13.67 19.26-24.11 3.29-47.39 4.44-66.09 4.44h-1.91c-20.73 0-40.32-1.84-59.46 1.16-0.82 0.13-1.65-1.52-2.48-1.52zM169.35 581.86c-4.85 0-9.64-2.2-12.77-6.37-5.3-7.04-3.89-17.06 3.16-22.36 12.4-9.34 24.41-19.26 37.14-29.76 13.79-11.39 28.04-23.17 42.82-34.1 7.09-5.23 17.09-3.75 22.34 3.34 5.24 7.09 3.75 17.09-3.34 22.34-14.09 10.43-28.01 21.93-41.48 33.05-12.44 10.27-25.29 20.88-38.27 30.66-2.89 2.16-6.26 3.2-9.6 3.2zM735.16 874.03c-4.81 0-9.63-0.83-14.28-2.49L689.4 860.3a15.98 15.98 0 0 1-9.8-10.03c-10.05-30.37-15.15-62-15.15-93.99 0-145.94 103.04-268.62 245-291.7 4.62-0.76 8.44 0.56 12.01 3.6 3.57 3.03 4.72 7.48 4.72 12.17v282.88c0 16.58-8.85 31.73-23.95 38.6L752.24 870.2c-5.59 2.55-11.1 3.83-17.08 3.83z m-27.54-41.15l24 8.57c2.59 0.94 5.37 0.81 7.85-0.33l149.55-68.38c3.72-1.69 5.23-5.44 5.23-9.52V499.81C782.45 527.56 695.5 632.54 695.5 756.28c0 26 4.68 51.74 12.12 76.6zM113.44 492.28c-8.82 0-15.97-7.15-15.97-15.97v-39.93c0-8.82 7.15-15.97 15.97-15.97s15.97 7.15 15.97 15.97v39.93c0 8.82-7.15 15.97-15.97 15.97z" fill="#5E125C" p-id="4344"></path><path d="M290.29 873.56c-5.98 0-11.93-1.28-17.52-3.81l-150.46-68.39c-15.1-6.86-24.85-22.01-24.85-38.6V532.21c0-8.82 7.15-15.97 15.97-15.97s15.97 7.15 15.97 15.97v230.55c0 4.09 2.41 7.83 6.13 9.52l150.45 68.39c2.49 1.13 5.27 1.25 7.85 0.32l204.63-73.08a42.56 42.56 0 0 1 28.52 0l204.64 73.08c2.57 0.94 5.36 0.81 7.85-0.33l150.45-68.38c3.72-1.69 6.13-5.44 6.13-9.52V213.89c0-5.15-3.35-7.86-4.8-8.79-1.44-0.93-5.3-2.85-9.99-0.73l-128.58 58.44c-10.09 4.59-21.38 5.06-31.8 1.33l-204.64-73.08c-2.26-0.81-4.76-0.81-7.04 0l-204.63 73.08c-10.44 3.72-21.73 3.24-31.8-1.33l-128.59-58.45c-4.68-2.12-8.55-0.19-9.99 0.73-1.44 0.93-4.8 3.64-4.8 8.79v166.59c0 8.82-7.15 15.97-15.97 15.97s-15.97-7.15-15.97-15.97V213.89c0-14.48 7.27-27.81 19.45-35.65 12.17-7.84 27.32-8.96 40.5-2.95l128.58 58.44c2.49 1.13 5.27 1.25 7.85 0.32l204.63-73.08a42.56 42.56 0 0 1 28.52 0l204.64 73.08c2.57 0.93 5.36 0.81 7.85-0.33l128.58-58.44c13.18-6 28.32-4.9 40.5 2.95 12.18 7.84 19.45 21.17 19.45 35.65v548.87c0 16.59-9.76 31.73-24.85 38.6L752.7 869.74c-10.08 4.59-21.38 5.05-31.8 1.33l-204.64-73.08c-2.26-0.81-4.76-0.81-7.04 0l-204.63 73.08a42.588 42.588 0 0 1-14.3 2.49z" fill="#5E125C" p-id="4345"></path><path d="M287.32 788.22c-8.82 0-15.97-7.15-15.97-15.97V245.18c0-8.82 7.15-15.97 15.97-15.97s15.97 7.15 15.97 15.97v527.07c0 8.82-7.15 15.97-15.97 15.97zM510.93 788.22c-8.82 0-15.97-7.15-15.97-15.97V245.18c0-8.82 7.15-15.97 15.97-15.97s15.97 7.15 15.97 15.97v527.07c0 8.82-7.15 15.97-15.97 15.97zM734.53 508.72c-8.82 0-15.97-7.15-15.97-15.97V245.18c0-8.82 7.15-15.97 15.97-15.97s15.97 7.15 15.97 15.97v247.56c0 8.83-7.15 15.98-15.97 15.98z" fill="#5E125C" p-id="4346"></path><path d="M660.47 600.09c-4.09 0-8.18-1.56-11.29-4.68l-75.87-75.87c-6.24-6.24-6.24-16.35 0-22.59 6.23-6.24 16.35-6.24 22.59 0l75.87 75.87c6.24 6.24 6.24 16.35 0 22.59a15.948 15.948 0 0 1-11.3 4.68z" fill="#FFFFFF" p-id="4347"></path><path d="M584.6 600.09c-4.09 0-8.18-1.56-11.29-4.68-6.24-6.24-6.24-16.35 0-22.59l75.87-75.87c6.23-6.24 16.35-6.24 22.59 0 6.24 6.24 6.24 16.35 0 22.59l-75.87 75.87a15.93 15.93 0 0 1-11.3 4.68z" fill="#FFFFFF" p-id="4348"></path></svg>